<svg width="880" height="188" viewBox="0 0 880 188" fill="none" xmlns="http://www.w3.org/2000/svg">
<g clip-path="url(#clip0_3133_18464)">
<path d="M113.39 93.8599C113.39 113.65 97.34 124.54 77.55 124.54C57.76 124.54 0 100.92 0 93.8599C0 86.7999 57.76 63.1799 77.55 63.1799C97.34 63.1799 113.39 74.0699 113.39 93.8599Z" fill="#222632"/>
<path d="M41.6701 187.61C40.0601 187.04 39.0701 184.62 40.0301 183.36C40.4401 182.82 41.0901 182.29 41.7901 181.89C46.7101 179.09 137.55 145.54 137.55 93.8699C137.55 42.1999 46.6201 8.42991 41.6501 5.67991C40.9301 5.27991 40.4301 4.88991 40.0301 4.34991C39.0201 3.02991 39.9201 0.629906 41.6701 0.0999065C42.1901 -0.0600935 43.1501 -0.0100935 43.8001 0.0999065C47.3401 0.689906 181.07 43.6299 181.07 93.8699C181.07 144.11 47.6701 187 43.9701 187.61C43.2901 187.72 42.1901 187.79 41.6701 187.61Z" fill="#222632"/>
</g>
<g clip-path="url(#clip1_3133_18464)">
<path d="M226.281 80.4368C226.281 49.0968 245.901 29.2068 274.381 29.2068C297.991 29.2068 312.851 43.1868 317.941 62.5668C318.111 63.1968 317.62 63.8168 316.96 63.8168H298.12C297.69 63.8168 297.31 63.5368 297.18 63.1268C294.02 53.6368 285.931 46.1068 273.691 46.1068C254.751 46.1068 246.031 62.5968 246.031 80.4468C246.031 98.2968 254.751 114.917 273.691 114.917C287.811 114.917 296.72 104.367 298.64 92.0568C298.72 91.5668 299.13 91.2068 299.62 91.2068H318.18C318.79 91.2068 319.26 91.7468 319.18 92.3468C315.95 114.677 300.49 131.677 274.37 131.677C245.89 131.677 226.271 111.507 226.271 80.4468L226.281 80.4368Z" fill="#222632"/>
<path d="M407.721 31.6567H423.981C424.531 31.6567 424.981 32.1067 424.981 32.6567V127.947C424.981 128.497 424.531 128.947 423.981 128.947H407.721C407.171 128.947 406.721 128.497 406.721 127.947V32.6567C406.721 32.1067 407.171 31.6567 407.721 31.6567Z" fill="#222632"/>
<path d="M439.1 140.657H456.63L460.72 130.707L432.38 59.8568C432.12 59.1968 432.6 58.4868 433.31 58.4868H449.79C450.21 58.4868 450.59 58.7568 450.73 59.1568L467.94 107.957H468.48L485.69 59.1568C485.83 58.7568 486.21 58.4868 486.63 58.4868H503.11C503.82 58.4868 504.3 59.2068 504.04 59.8668L466.45 152.747C465.67 154.667 463.81 155.917 461.75 155.917H439.1C438.55 155.917 438.1 155.467 438.1 154.917V141.657C438.1 141.107 438.55 140.657 439.1 140.657Z" fill="#222632"/>
<path d="M512.871 58.4967H529.131C529.681 58.4967 530.131 58.9467 530.131 59.4967V67.8967H530.541C535.311 59.8567 544.171 56.5867 551.521 56.5867C571.551 56.5867 583.001 73.6167 583.001 93.5167C583.001 113.417 571.551 130.577 551.521 130.577C544.161 130.577 535.311 127.447 530.541 119.407H530.131V154.927C530.131 155.477 529.681 155.927 529.131 155.927H512.871C512.321 155.927 511.871 155.477 511.871 154.927V59.4967C511.871 58.9467 512.321 58.4967 512.871 58.4967ZM546.891 115.857C559.021 115.857 564.061 104.957 564.061 93.5067C564.061 82.0567 559.021 71.2967 546.891 71.2967C534.761 71.2967 529.721 82.0567 529.721 93.5067C529.721 104.957 534.901 115.857 546.891 115.857Z" fill="#222632"/>
<path d="M590.971 105.647H606.631C607.141 105.647 607.551 106.027 607.621 106.527C608.641 113.567 614.141 117.087 622.781 117.087C630.281 117.087 636.541 114.637 636.541 109.317C636.541 106.457 634.361 103.317 626.591 101.827L614.731 99.5067C599.331 96.5067 591.971 89.8367 591.971 78.2467C591.971 65.3067 603.421 56.5767 621.401 56.5767C639.381 56.5767 651.281 66.6467 652.401 79.4867C652.451 80.0667 651.981 80.5567 651.401 80.5567H635.611C635.121 80.5567 634.721 80.1967 634.631 79.7167C633.421 73.0167 628.611 69.2467 621.411 69.2467C614.211 69.2467 609.281 72.1067 609.281 77.6967C609.281 81.2367 612.411 83.8267 619.501 85.0567L630.541 87.0967C647.841 90.0967 654.391 97.3167 654.391 108.627C654.391 121.437 641.991 130.567 622.781 130.567C602.311 130.567 590.531 120.197 589.961 106.657C589.941 106.097 590.401 105.627 590.971 105.627V105.647Z" fill="#222632"/>
<path d="M661.34 93.5167C661.34 72.8067 674.01 56.5867 697.45 56.5867C720.89 56.5867 733.56 72.8067 733.56 93.5167C733.56 114.227 720.89 130.577 697.45 130.577C674.01 130.577 661.34 114.367 661.34 93.5167ZM697.45 115.857C706.85 115.857 714.62 108.767 714.62 93.5067C714.62 78.2467 706.85 71.2967 697.45 71.2967C688.05 71.2967 680.28 78.3867 680.28 93.5067C680.28 108.627 688.05 115.857 697.45 115.857Z" fill="#222632"/>
<path d="M793.01 31.6567H814.26C814.67 31.6567 815.04 31.9067 815.19 32.2967L852.29 127.587C852.55 128.247 852.06 128.947 851.36 128.947H832.41C831.99 128.947 831.61 128.677 831.47 128.277L822.71 103.467H784.56L775.8 128.277C775.66 128.677 775.28 128.947 774.86 128.947H755.91C755.21 128.947 754.72 128.237 754.98 127.587L792.08 32.2967C792.23 31.9167 792.6 31.6567 793.01 31.6567ZM816.99 87.1067L803.91 49.4967H803.37L790.29 87.1067H817H816.99Z" fill="#222632"/>
<path d="M860.67 31.6567H878.16C878.71 31.6567 879.16 32.1067 879.16 32.6567V127.947C879.16 128.497 878.71 128.947 878.16 128.947H860.67C860.12 128.947 859.67 128.497 859.67 127.947V32.6567C859.67 32.1067 860.12 31.6567 860.67 31.6567Z" fill="#222632"/>
<path d="M397.06 115.167H389.88V82.8667C389.88 63.6567 375.71 56.5767 359.09 56.5767C341.13 56.5767 328.48 65.9467 327.66 80.6167C327.63 81.1767 328.1 81.6567 329.48 81.6567H344.38C344.9 81.6567 345.32 81.3367 345.38 80.7267C346.14 73.1267 351.19 70.7467 358.82 70.7467C366.45 70.7467 371.49 73.0667 371.49 83.1467V85.7467C333.48 84.2267 324.76 94.8567 324.76 109.447V109.467H324.74C324.74 122.947 336.46 130.577 348.32 130.577C358.27 130.577 367.35 127.437 372.16 118.607H372.57L377.37 127.097C378.2 128.257 379.55 128.947 380.99 128.947H397.06C397.61 128.947 398.06 128.497 398.06 127.947V116.167C398.06 115.617 397.61 115.167 397.06 115.167ZM353.51 116.957C348.2 116.957 343.29 114.237 343.29 108.227C343.29 102.807 345.26 97.7267 363.97 97.5967H364.21C365.24 97.6167 366.98 97.6567 367.91 97.7567C368.84 97.8567 370.68 97.7467 370.37 100.247L370.4 100.137C369.68 108.437 365.06 116.957 353.51 116.957Z" fill="#222632"/>
</g>
<defs>
<clipPath id="clip0_3133_18464">
<rect width="181.07" height="187.73" fill="white"/>
</clipPath>
<clipPath id="clip1_3133_18464">
<rect width="657.081" height="134.093" fill="white" transform="translate(222.07 26.8186)"/>
</clipPath>
</defs>
</svg>
