<svg width="169" height="42" viewBox="0 0 169 42" fill="none" xmlns="http://www.w3.org/2000/svg">
<path d="M57.6213 12.0146H50.9014V6.41016H57.6213V12.0146ZM50.9014 14.5883H57.6213V34.9708H50.9014V14.5883Z" fill="#313638"/>
<path d="M60.6455 6.41016H67.3655V34.97H60.6455V6.41016Z" fill="#313638"/>
<path d="M70.3896 6.41016H77.1096V34.97H70.3896V6.41016Z" fill="#313638"/>
<path d="M100.294 14.4844V34.9702H93.5738V32.1906C92.2357 34.2495 89.7829 35.5876 87.3124 35.5876C81.4451 35.5876 79.7979 32.1906 79.7979 26.8373V14.4844H86.5178V26.9986C86.5178 28.9466 88.097 30.5266 90.0458 30.5266C91.9946 30.5266 93.5738 28.9466 93.5738 26.9986V14.4844H100.294Z" fill="#313638"/>
<path d="M135.573 22.72V34.9705H128.853V22.1984C128.853 20.5277 127.499 19.1744 125.829 19.1744C124.16 19.1744 122.806 20.5277 122.806 22.1984V34.9705H116.086V22.1984C116.086 20.5277 114.731 19.1744 113.062 19.1744C111.392 19.1744 110.038 20.5277 110.038 22.1984V34.9705H103.318V14.4847H110.038V17.2643C111.273 15.2054 113.406 13.8673 115.773 13.8673C118.347 13.8673 120.611 14.6905 121.744 17.1618C123.185 14.9996 125.553 13.764 128.126 13.8673C134.612 13.8673 135.573 18.8082 135.573 22.72Z" fill="#313638"/>
<path d="M144.982 12.0146H138.262V6.41016H144.982V12.0146ZM138.262 14.5883H144.982V34.9708H138.262V14.5883Z" fill="#313638"/>
<path d="M157.589 13.9696C163.56 13.9696 168.398 18.7046 168.501 24.6753C168.501 30.646 163.766 35.4844 157.795 35.5869C151.824 35.5869 146.986 30.8518 146.883 24.8811V24.7778C146.678 19.0129 151.207 14.1745 156.972 13.9688C157.178 13.9688 157.383 13.9688 157.589 13.9688V13.9696ZM157.589 30.4402C160.677 30.4402 161.707 27.3524 161.707 24.7786C161.707 22.2049 160.678 19.1171 157.589 19.1171C154.501 19.1171 153.575 22.2049 153.575 24.7786C153.575 27.3524 154.501 30.4402 157.589 30.4402Z" fill="#313638"/>
<path d="M38.176 4.32348V37.6765H4.82299V4.32348H38.176ZM2.51551 0C1.40671 0 0.499512 0.9072 0.499512 2.016V39.984C0.499512 41.0928 1.40671 42 2.51551 42H40.4835C41.5923 42 42.4995 41.0928 42.4995 39.984V2.016C42.4995 0.9072 41.5923 0 40.4835 0H2.51551Z" fill="#FF5500"/>
<path d="M25.1597 17.9876L27.1875 15.9599H32.5517C33.1086 15.9599 33.5597 15.5088 33.5597 14.9519V9.4079C33.5597 8.85098 33.1086 8.3999 32.5517 8.3999H27.0077C26.4508 8.3999 25.9997 8.85098 25.9997 9.4079V14.7721L23.972 16.7999H17.9475L14.4809 13.3332V10.489C14.4809 9.93205 14.0298 9.48098 13.4729 9.48098H10.4489C9.892 9.48098 9.44092 9.93205 9.44092 10.489V13.513C9.44092 14.0699 9.892 14.5209 10.4489 14.5209H13.2931L16.7598 17.9876V24.012L13.2931 27.4787H10.4489C9.892 27.4787 9.44092 27.9298 9.44092 28.4867V31.5107C9.44092 32.0676 9.892 32.5187 10.4489 32.5187H13.4729C14.0298 32.5187 14.4809 32.0676 14.4809 31.5107V28.6665L17.9475 25.1998H23.972L25.9997 27.2275V32.5918C25.9997 33.1487 26.4508 33.5997 27.0077 33.5997H32.5517C33.1086 33.5997 33.5597 33.1487 33.5597 32.5918V27.0478C33.5597 26.4909 33.1086 26.0398 32.5517 26.0398H27.1875L25.1597 24.012V17.9884V17.9876Z" fill="#FF5500"/>
</svg>
