<svg xmlns="http://www.w3.org/2000/svg" width="4098" height="800" fill="none" viewBox="0 0 4098 800"><path fill="#0F0166" d="m1348.08 440.093-202.01-237.014h-41v369.522h67.5V337.587l198.51 235.014h44.5V203.079h-67.5v237.014ZM1524.62 268.583c23.5 0 41-17.001 41-41.002 0-23.502-17.5-41.003-41-41.003s-42 17.501-42 41.003c0 24.001 18 41.002 42 41.002Zm32 32.502h-65.5v271.516h65.5V301.085ZM1830.99 333.587c-22.5-26.002-51.51-39.002-86.01-39.002-39 0-72 13-98.5 39.502-26.51 26.001-39.51 59.503-39.51 100.006 0 40.002 12.5 73.004 38.01 99.506 25.5 26.501 58 39.502 97.5 39.502 35.5 0 64.51-12.501 86.51-37.002V552.1c0 46.502-32.51 79.004-88.01 79.004-33 0-65-10.5-95.5-32.002l-26.51 49.503c36.51 26.002 77.51 39.003 123.51 39.003 44.5 0 80.51-13.001 108.01-38.503 27.5-25.501 41.5-60.003 41.5-103.506V301.085h-61v32.502Zm-79.01 182.511c-23 0-42-7.501-57-23.002-15-15.501-22.5-35.002-22.5-58.503 0-23.502 7.5-42.503 22.5-57.504 15-15.5 34-23.001 57-23.001 22.5 0 41.5 7.501 56.51 23.001 15 15.001 22.5 34.002 22.5 57.504 0 23.501-7.5 43.002-22.5 58.503-15.01 15.501-34.01 23.002-56.51 23.002ZM2022.92 572.601V425.592c0-42.502 27.01-72.004 65.51-72.004 36 0 59.5 25.502 59.5 71.004v148.009h65.01v-165.51c0-36.502-10.51-64.003-31.01-83.505-20.5-19.501-45-29.501-74.5-29.501-38.5 0-70.51 17.501-86.01 42.002V192.579h-63.5v380.022h65ZM2444.39 505.597c-15.5 9.501-31 14.001-46 14.001-26.5 0-39.5-16.501-39.5-49.003V356.088h91v-55.003h-91v-96.006h-64.51v96.006h-46v55.003h45v117.007c0 69.504 31.5 106.006 93.01 106.006 30.5 0 57-7.5 78.5-22.501l-20.5-51.003ZM2640.46 240.582c12 0 26.51 3.5 43.51 11l20.5-51.003c-24-12.501-48.51-18.501-73.01-18.501-64.5 0-108 38.002-108 106.506v12.501h-43.01v55.003h43.01v216.513h65V356.088h85.01v-55.003h-85.01v-11.001c0-32.001 18.5-49.502 52-49.502ZM2911.59 335.587c-24.5-27.502-54-41.002-88.5-41.002-38.5 0-71.01 13.5-96.51 40.002-25.5 26.502-38 60.504-38 101.006s12.5 75.004 38 102.506c25.5 27.501 57.51 41.002 96.51 41.002 35.5 0 65-13.5 88.5-40.002v33.502h62.01V301.085h-62.01v34.502Zm1.5 101.006c0 23.501-7.5 43.002-22.5 59.003-15 16.001-34 24.002-57.5 24.002s-42.5-8.001-57.5-24.002c-14.51-16.001-22.01-35.502-22.01-59.003 0-23.001 7.5-42.503 22.01-58.503 15-16.001 34-24.002 57.5-24.002s42.5 8.001 57.5 24.002c15 16 22.5 35.502 22.5 58.503ZM3105.02 192.579h-65.01v380.022h65.01V192.579ZM3236.37 192.579h-65v380.022h65V192.579ZM3731.79 572.601l-141.51-369.522h-52.51l-143 369.522h72.5l30.5-84.005h131.01l30.5 84.005h72.51Zm-122.51-145.509h-91.51l46.01-126.507 45.5 126.507ZM3778.99 572.601h68.51V203.079h-68.51v369.522ZM3945.27 301.744h17.25v-75.88h26.63v-16.501h-70.5v16.501h26.62v75.88ZM4018.38 301.744V246.99l28 40.503h5.62l28-40.503v54.754h17.01v-92.381h-10.88l-36.88 53.878-37-53.878h-10.75v92.381h16.88Z"/><path fill="url(#a)" d="M773.526 415.919a380.371 380.371 0 0 1-33.764 157.274c-60.548 133.618-193.335 210.219-350.55 210.219-186.878 0-345.577-115.075-381.347-290.112C-21.7 349.805 33.469 202.1 150.106 112.474c116.636-89.627 274.44-105.575 406.862-41.12C689.391 135.81 773.383 269.452 773.526 415.92Z" opacity=".46"/><path fill="url(#b)" d="M386.771 748.308c184.882 0 334.759-148.859 334.759-332.485S571.653 83.338 386.771 83.338 52.013 232.197 52.013 415.823 201.889 748.308 386.77 748.308Z" opacity=".46"/><path fill="url(#c)" d="M386.768 692.337c153.755 0 278.398-123.797 278.398-276.508 0-152.711-124.643-276.508-278.398-276.508-153.756 0-278.399 123.797-278.399 276.508 0 152.711 124.643 276.508 278.399 276.508Z"/><path fill="url(#d)" d="M252.064 253.88 449.15 452.054l56.884-104.676L738.193 577.96S596.856 892.508 280.942 763.569 52.36 519.903 52.36 519.903L252.065 253.88Z"/><path fill="#811FDC" d="m422.192 424.578 83.842-77.207s31.583 49.219 17.886 80.587c-5.497 12.478-32.543 69.322-32.543 69.322l-69.185-72.702Z"/><path fill="url(#e)" d="M401.34 272.341c-1.833-1.906 0-7.192 5.06-11.785l152.417-151.121c4.624-4.593 9.945-6.846 11.865-4.94 1.832 1.82 0 7.106-5.06 11.699L413.467 267.315c-4.624 4.679-9.946 6.846-12.127 5.026Z" opacity=".8"/><path fill="url(#f)" d="M516.415 296.767c-1.832-1.906 0-7.192 5.061-11.785L673.631 133.86c4.624-4.592 9.946-6.845 11.778-4.939 1.919 1.82 0 7.106-4.973 11.785L528.281 291.828c-4.799 4.592-9.946 6.845-11.866 4.939Z" opacity=".4"/><path fill="url(#g)" d="M430.739 168.525c-1.832-1.907 0-7.192 4.973-11.785L587.954 5.618c4.624-4.592 9.946-6.845 11.778-4.939 1.919 1.82 0 7.106-4.973 11.698L442.604 163.586c-4.624 4.592-9.946 6.758-11.865 4.939Z" opacity=".4"/><path fill="url(#h)" d="M240.72 714.351c-104.694-76.774 18.147-275.382 40.918-327.286 22.771-51.905-29.576-133.185-29.576-133.185L8.736 495.813C46.78 673.152 204.471 799.936 387.03 799.963c71.741.976 142.369-17.67 204.153-53.898a379.824 379.824 0 0 0-77.473-31.714c-82.098-22.617-168.47 76.687-272.99 0Z"/><path fill="#811FDC" d="M240.72 714.351c-104.694-76.774 18.147-275.382 40.918-327.286 22.771-51.905-29.576-133.185-29.576-133.185L8.736 495.813C46.78 673.152 204.471 799.936 387.03 799.963c71.741.976 142.369-17.67 204.153-53.898a379.824 379.824 0 0 0-77.473-31.714c-82.098-22.617-168.47 76.687-272.99 0Z"/><defs><radialGradient id="a" cx="0" cy="0" r="1" gradientTransform="matrix(382.656 0 0 371.638 386.769 407.6)" gradientUnits="userSpaceOnUse"><stop stop-color="#390588"/><stop offset=".8" stop-color="#180056"/></radialGradient><radialGradient id="b" cx="0" cy="0" r="1" gradientTransform="matrix(334.759 0 0 332.485 386.771 415.823)" gradientUnits="userSpaceOnUse"><stop stop-color="#390588"/><stop offset=".8" stop-color="#180056"/></radialGradient><radialGradient id="c" cx="0" cy="0" r="1" gradientTransform="matrix(278.398 0 0 276.508 386.768 415.829)" gradientUnits="userSpaceOnUse"><stop stop-color="#390588"/><stop offset=".8" stop-color="#180056"/></radialGradient><radialGradient id="e" cx="0" cy="0" r="1" gradientTransform="rotate(-22.738 855.886 -919.166) scale(138.941 138.051)" gradientUnits="userSpaceOnUse"><stop offset=".06" stop-color="#fff"/><stop offset=".93" stop-color="#A469FF" stop-opacity=".01"/></radialGradient><radialGradient id="f" cx="0" cy="0" r="1" gradientTransform="rotate(-22.78 972.9 -1190.479) scale(138.731 138.039)" gradientUnits="userSpaceOnUse"><stop offset=".06" stop-color="#fff"/><stop offset=".93" stop-color="#A469FF" stop-opacity=".01"/></radialGradient><radialGradient id="g" cx="0" cy="0" r="1" gradientTransform="matrix(127.91102 -53.70502 53.42861 127.2527 451.161 155.568)" gradientUnits="userSpaceOnUse"><stop offset=".06" stop-color="#fff"/><stop offset=".93" stop-color="#A469FF" stop-opacity=".01"/></radialGradient><linearGradient id="d" x1="41.348" x2="41.348" y1="253.88" y2="794.504" gradientUnits="userSpaceOnUse"><stop offset=".06" stop-color="#fff"/><stop offset=".93" stop-color="#A469FF"/></linearGradient><linearGradient id="h" x1="-20.753" x2="631.752" y1="832.825" y2="832.825" gradientUnits="userSpaceOnUse"><stop stop-color="#700EDB"/><stop offset="1" stop-color="#6E0ED9"/></linearGradient></defs></svg>