<svg width="17" height="35" viewBox="0 0 17 35" fill="none" xmlns="http://www.w3.org/2000/svg">
<path fill-rule="evenodd" clip-rule="evenodd" d="M4.43148 0.00744629H10.7601V6.62372H16.2257V11.6099H10.7601V25.8013C10.7601 26.7602 10.9519 27.4314 11.2395 27.9109C11.4313 28.2944 11.9107 28.5821 12.3902 28.7739C12.7737 28.9657 13.2532 28.9657 13.7326 28.9657C14.1162 28.9657 14.4038 28.9657 14.7874 28.9657C15.0751 28.9657 15.5545 28.9657 15.5545 28.7739L16.6093 33.7601C16.2257 33.9518 15.7463 33.9518 15.2668 34.2395C14.5956 34.4313 13.9244 34.4313 13.0614 34.4313C11.4313 34.4313 9.8971 34.2395 8.74644 33.7601C7.40401 33.2806 6.44513 32.4176 5.58213 31.267C4.91092 30.1163 4.43148 28.7739 4.43148 26.952V11.6099H0.308289V6.62372H4.43148V0.00744629Z" fill="black"/>
</svg>
