<?xml version="1.0" encoding="utf-8"?>
<!-- Generator: Adobe Illustrator 26.0.2, SVG Export Plug-In . SVG Version: 6.00 Build 0)  -->
<svg version="1.1" id="Layer_1" xmlns="http://www.w3.org/2000/svg" xmlns:xlink="http://www.w3.org/1999/xlink" x="0px" y="0px"
	 viewBox="0 0 2480 706.6" style="enable-background:new 0 0 2480 706.6;" xml:space="preserve">
<style type="text/css">
	.st0{fill-rule:evenodd;clip-rule:evenodd;}
	.st1{fill-rule:evenodd;clip-rule:evenodd;fill:#FFFFFF;}
</style>
<g id="Layer_x0020_1">
	<g id="_2202819651008">
		<path class="st0" d="M1996,553.8c-29,0-52-7-73-18c-22-12-38-31-48-52c-11-22-16-48-16-78c0-31,5-57,16-78c12-22,26-40,48-52
			c21-12,44-19,73-19c28,0,52,7,73,19s35,30,47,52c12,21,17,47,17,78c0,30-5,56-17,78c-9,21-26,40-47,52
			C2048,546.8,2024,553.8,1996,553.8z M1996,499.8c16,0,28-5,38-12c9-9,18-19,23-33s7-30,7-47c0-16-2-33-7-47s-12-26-23-33
			c-10-10-24-12-38-12c-17,0-29,5-38,12c-9,9-19,19-24,33c-4,14-7,31-7,47c0,17,3,33,7,47c5,14,12,26,24,33
			C1967,494.8,1979,499.8,1996,499.8z"/>
		<path class="st0" d="M1386,553.8c-28,0-52-7-73-18c-21-12-38-31-47-52c-12-22-17-48-17-78c0-31,5-57,17-78c12-22,26-40,47-52
			s45-19,73-19c29,0,52,7,74,19c21,12,35,30,47,52c12,21,16,47,16,78c0,30-4,56-16,78c-10,21-26,40-47,52
			C1438,546.8,1415,553.8,1386,553.8z M1386,499.8c17,0,29-5,38-12c10-9,19-19,24-33s7-30,7-47c0-16-2-33-7-47s-12-26-24-33
			c-9-10-23-12-38-12c-16,0-28,5-37,12c-10,9-19,19-24,33s-7,31-7,47c0,17,2,33,7,47s12,26,24,33C1358,494.8,1372,499.8,1386,499.8z
			"/>
		<path class="st1" d="M43,29.8l392-28c47-5,61-3,89,21l126,87c21,15,28,19,28,36v482c0,30-12,47-50,52l-456,26c-28,2-42-3-56-22
			l-92-120c-17-21-24-38-24-57v-430C0,53.8,12,31.8,43,29.8L43,29.8z"/>
		<path class="st0" d="M435,1.8l-392,28c-31,2-43,24-43,47v430c0,19,7,36,24,57l92,120c14,19,28,24,56,22l456-29c38-2,50-21,50-52
			v-479c0-17-7-21-24-33l-2-3l-125-87C496-1.2,482-3.2,435,1.8z M184,135.8c-38,3-47,5-66-14l-54-42c-7-5-3-12,9-12l378-28
			c31-3,47,7,62,18l63,48c3,2,10,9,3,9l-390,21H184z M139,622.8v-409c0-19,5-26,22-28l446-26c14-2,21,7,21,26v406c0,19-2,33-28,36
			l-428,23C151,653.8,139,646.8,139,622.8z M562,235.8c2,11,0,23-12,26l-21,4v303c-19,9-35,14-47,14c-21,0-29-7-45-29l-135-212v205
			l43,10c0,0,0,23-36,23l-94,5c-2-5,0-19,9-21l24-7v-267l-35-2c-3-12,4-31,23-31l102-7l139,215v-189l-35-5c-3-14,7-26,21-28
			C468,242.8,562,235.8,562,235.8z"/>
		<path class="st0" d="M2241,379.8v167h-66v-285h64v49h2c8-16,17-28,31-38c14-9,33-14,54-14c19,0,38,5,52,12c15,9,26,21,36,38
			c7,16,12,35,12,59v182h-66v-173c0-19-5-33-15-45c-9-11-23-16-42-16c-12,0-21,2-31,7c-9,5-16,12-21,21
			C2244,353.8,2241,365.8,2241,379.8L2241,379.8z"/>
		<path class="st0" d="M1783,218.8c-12,0-19-2-28-9c-7-7-12-17-12-26c0-10,5-19,12-26s16-12,28-12s19,5,29,12c7,7,11,16,11,26
			c0,9-4,19-11,26C1802,216.8,1795,218.8,1783,218.8L1783,218.8z"/>
		<polygon class="st0" points="1750,546.8 1750,261.8 1816,261.8 1816,549.8 1750,549.8 		"/>
		<path class="st0" d="M1585,192.8h66v69h57v52h-57v148c0,10,2,17,5,22c2,4,7,7,12,9c4,2,9,2,14,2c4,0,7,0,11,0c3,0,8,0,8-2l11,52
			c-4,2-9,2-14,5c-7,2-14,2-23,2c-17,0-33-2-45-7c-14-5-24-14-33-26c-7-12-12-26-12-45v-160h-43v-52h43V192.8L1585,192.8z"/>
		<polygon class="st0" points="1205,164.8 1205,546.8 1143,546.8 961,284.8 959,284.8 959,546.8 890,546.8 890,164.8 952,164.8 
			1134,426.8 1138,426.8 1138,164.8 		"/>
	</g>
</g>
</svg>
