<svg width="27" height="29" viewBox="0 0 27 29" fill="none" xmlns="http://www.w3.org/2000/svg">
<path fill-rule="evenodd" clip-rule="evenodd" d="M13.3488 28.6229C10.664 28.6229 8.36265 27.9517 6.349 26.8969C4.33535 25.7463 2.70525 23.9244 1.84226 21.9108C0.691599 19.8012 0.212158 17.3081 0.212158 14.4315C0.212158 11.459 0.691599 8.96587 1.84226 6.95222C2.99291 4.84268 4.33535 3.1167 6.349 1.96604C8.36265 0.815382 10.664 0.144165 13.3488 0.144165C16.1296 0.144165 18.335 0.815382 20.4445 1.96604C22.4582 3.1167 23.8006 4.84268 24.9513 6.95222C26.1019 8.96587 26.4855 11.459 26.4855 14.4315C26.4855 17.3081 26.1019 19.8012 24.9513 21.9108C23.9924 23.9244 22.4582 25.7463 20.4445 26.8969C18.335 27.9517 16.1296 28.6229 13.3488 28.6229ZM13.3488 23.445C14.9789 23.445 16.1296 22.9655 16.9926 22.2943C17.9515 21.4313 18.8144 20.4724 19.2939 19.13C19.7733 17.7876 19.9651 16.2534 19.9651 14.6233C19.9651 13.0891 19.7733 11.459 19.2939 10.1165C18.8144 8.77409 18.1432 7.62344 16.9926 6.95222C16.1296 5.99334 14.7871 5.80156 13.3488 5.80156C11.8146 5.80156 10.664 6.281 9.80097 6.95222C8.84209 7.81521 7.97909 8.77409 7.49965 10.1165C7.02021 11.459 6.82844 13.0891 6.82844 14.6233C6.82844 16.2534 7.02021 17.7876 7.49965 19.13C7.97909 20.4724 8.65031 21.6231 9.80097 22.2943C10.664 22.9655 12.0064 23.445 13.3488 23.445Z" fill="black"/>
</svg>
