<svg width="58" height="72" viewBox="0 0 58 72" fill="none" xmlns="http://www.w3.org/2000/svg">
<path d="M36.8938 63.9522C30.6517 64.0176 24.8672 60.6514 21.8605 55.161C20.5533 52.8733 17.1217 46.7947 16.9583 46.4678C15.455 43.788 19.4748 41.5657 20.9781 44.2129C21.0108 44.2782 24.5404 50.5857 25.8476 52.8407C29.083 58.4618 35.031 60.5861 41.7306 58.5599C44.6719 57.6775 45.9792 62.0894 43.0705 62.9718C41.077 63.6254 38.9854 63.9522 36.8938 63.9522ZM37.4167 71.2401C28.6582 71.2401 20.4552 67.155 16.3374 59.9978L6.92524 43.69C6.27162 42.5788 6.66379 41.1735 7.77495 40.5526L14.1804 36.8596C15.2916 36.206 16.6969 36.5982 17.3178 37.6766C17.9715 38.7878 17.5793 40.1931 16.4681 40.814L12.0562 43.3631L20.3245 57.6775C24.8018 65.4229 35.4558 68.6583 45.2275 65.2922C53.0383 58.5272 55.5547 47.677 51.0774 39.9316L43.1686 26.2709C42.515 25.1598 42.9071 23.7545 43.9856 23.1009C45.0968 22.4472 46.502 22.8394 47.123 23.9506L55.0318 37.644C60.6856 47.4156 57.5809 60.9456 47.842 69.1159C47.6459 69.2793 47.4171 69.41 47.1557 69.508C44.051 70.6519 40.7502 71.2401 37.4167 71.2401ZM36.6977 56.5009C33.0701 56.5009 29.9981 54.0825 28.4294 51.37L1.27141 4.30924C-0.231917 1.66207 3.72249 -0.625607 5.25851 2.02156L32.4165 49.0823C33.1682 50.3569 35.2598 52.5792 37.9069 51.7295C40.8155 50.7818 42.2208 55.161 39.3122 56.1088C38.4625 56.3375 37.6128 56.5009 36.6977 56.5009ZM30.8151 32.2189C29.9981 32.2189 29.2464 31.794 28.8216 31.0751L21.2069 17.8719C19.7036 15.2247 23.658 12.937 25.194 15.5842L31.6648 26.7938L35.7826 24.4081C38.4298 22.9048 40.7175 26.8592 38.0703 28.3952L31.959 31.9248C31.6322 32.0882 31.24 32.2189 30.8151 32.2189Z" fill="#00ABC7"/>
</svg>
