<svg width="133" height="41" viewBox="0 0 133 41" fill="none" xmlns="http://www.w3.org/2000/svg">
<path d="M19.6734 25.7951C19.8041 28.0501 18.8237 30.2397 17.0589 31.6123C15.1634 32.9522 12.8757 33.6059 10.5554 33.4751C6.82971 33.5078 3.20211 32.2006 0.326172 29.8802L3.23479 25.4356C5.84928 27.3311 8.36572 28.2788 10.7514 28.2788C12.6469 28.2788 13.5947 27.6906 13.5947 26.4814V26.3833C13.5947 25.7297 13.1045 25.1741 12.124 24.7493C11.7646 24.6186 10.6207 24.2264 8.65985 23.6381C3.92109 22.2328 1.53538 19.8471 1.53538 16.481V16.3829C1.47001 14.226 2.41776 12.1344 4.11718 10.7618C5.88196 9.42185 8.03891 8.70286 10.2612 8.80091C13.4313 8.80091 16.536 9.74866 19.1505 11.5788L16.5687 16.2522C14.0522 14.7816 11.8953 14.0299 10.0978 14.0299C8.43109 14.0299 7.61406 14.5855 7.61406 15.6639V15.762C7.61406 16.3502 8.10427 16.8731 9.08471 17.3634C9.47688 17.5268 10.588 17.9516 12.4835 18.6052C14.2156 19.1281 15.8497 19.9125 17.353 20.9256C18.8564 22.0368 19.7387 23.8015 19.7061 25.697V25.7951H19.6734ZM36.112 33.6385C35.1969 36.0896 34.1838 37.8217 33.0399 38.8022C31.7 39.8806 30.0006 40.4035 28.2685 40.3055C26.1442 40.3055 24.0853 39.7499 22.2552 38.6714L24.5102 33.7693C25.3599 34.3248 26.373 34.6517 27.4188 34.717C28.4646 34.7497 29.3797 34.1288 29.7718 33.1483L20.4577 9.19308H27.6149L33.0399 25.4356L38.2362 9.19308H45.2954L36.112 33.6385ZM64.3811 25.7951C64.5118 28.0501 63.5314 30.2397 61.7666 31.6123C59.8711 32.9522 57.5834 33.6059 55.2631 33.4751C51.5374 33.5078 47.9098 32.2006 45.0339 29.8802L47.9425 25.4356C50.557 27.3311 53.0735 28.2788 55.4592 28.2788C57.3547 28.2788 58.3024 27.6906 58.3024 26.4814V26.3833C58.3024 25.7297 57.8122 25.1741 56.8318 24.7493C56.4723 24.6186 55.3285 24.2264 53.3676 23.6381C48.6288 22.2328 46.2431 19.8471 46.2431 16.481V16.3829C46.1777 14.226 47.1255 12.1344 48.8249 10.7618C50.5897 9.42185 52.7466 8.70286 54.969 8.80091C58.139 8.80091 61.2437 9.74866 63.8582 11.5788L61.2764 16.2522C58.76 14.7816 56.603 14.0299 54.8056 14.0299C53.1388 14.0299 52.3218 14.5855 52.3218 15.6639V15.762C52.3218 16.3502 52.812 16.8731 53.7924 17.3634C54.1846 17.5268 55.2958 17.9516 57.1913 18.6052C58.9234 19.1281 60.5574 19.9125 62.0608 20.9256C63.5641 22.0368 64.4465 23.8015 64.4138 25.697V25.7951H64.3811ZM85.0356 33.0503V30.9587C82.9767 32.7235 80.2968 33.6059 77.5843 33.5078C74.741 33.5732 71.9958 32.4293 70.0676 30.3377C67.8453 28.0174 66.7342 24.9781 66.7342 21.1544V21.089C66.7342 17.298 67.8453 14.226 70.035 11.9056C71.9958 9.8467 74.741 8.70287 77.617 8.73555C80.2641 8.63751 82.8786 9.42185 85.0683 10.9579V0.532593H91.8332V33.0503H85.0356ZM85.1336 21.089C85.199 19.3569 84.578 17.6248 83.4342 16.3176C82.4211 15.141 80.9178 14.4547 79.3491 14.4874C77.7804 14.4547 76.277 15.1084 75.2639 16.2849C74.0874 17.5921 73.4665 19.3242 73.5318 21.089V21.187C73.4665 22.9518 74.0874 24.6512 75.2639 25.9585C77.4536 28.4096 81.2772 28.4096 83.4669 25.9585C84.6107 24.6512 85.2317 22.9518 85.1663 21.187V21.089H85.1336ZM95.8857 6.5786V0.565276H103.01V6.5786H95.8857ZM96.0818 33.0503V9.19308H102.847V33.0503H96.0818ZM132.031 27.6579C132.031 32.0699 130.92 35.3053 128.698 37.3315C126.541 39.2924 123.24 40.2728 118.73 40.2728C115.069 40.3055 111.442 39.4558 108.174 37.789L110.494 32.2659C112.945 33.6712 115.723 34.4229 118.566 34.4556C123.109 34.4556 125.364 32.5928 125.364 28.8344V28.573C123.142 30.3051 120.397 31.1875 117.586 31.1221C114.841 31.1875 112.161 30.1417 110.2 28.2135C108.01 26.0238 106.867 23.0499 106.997 19.9778V19.8798C106.867 16.8078 108.043 13.8011 110.233 11.6442C112.194 9.71598 114.841 8.67019 117.586 8.73555C120.331 8.67019 123.011 9.45453 125.299 10.9579V9.19308H132.064V27.6579H132.031ZM125.331 19.8798C125.364 18.3765 124.743 16.9385 123.632 15.9254C121.279 13.8338 117.717 13.8338 115.364 15.9254C114.285 16.9385 113.664 18.3765 113.73 19.8798V19.9778C113.664 21.4812 114.285 22.9518 115.364 23.9976C116.507 25.0107 117.978 25.5663 119.514 25.5009C121.05 25.5336 122.521 24.9781 123.665 23.9323C124.776 22.9191 125.397 21.4812 125.364 19.9778V19.8798H125.331Z" fill="#55565B"/>
</svg>
